<svg width="513" height="512" viewBox="0 0 513 512" fill="none" xmlns="http://www.w3.org/2000/svg">
<path d="M490.59 322.859L366.165 447.196C281.95 531.411 142.033 533.442 59.4058 447.726C-20.8892 364.264 -19.6332 231.895 62.2308 149.972L190.011 22.2803L265.134 97.4033L139.561 222.975C99.8048 261.809 95.8768 324.426 130.469 367.924C149.571 390.995 177.504 404.955 207.422 406.383C237.34 407.811 266.476 396.574 287.688 375.427L415.467 247.736L490.59 322.859Z" fill="#D32F2F"/>
<path d="M281.42 81.1166L256.35 106.187L181.227 31.0636L206.209 5.9936C213.147 -0.892398 224.341 -0.892398 231.279 5.9936L281.42 56.0456C288.305 62.9846 288.305 74.1776 281.42 81.1166Z" fill="#D1D4D1"/>
<path d="M506.789 306.573L481.807 331.643L406.684 256.52L431.666 231.45C434.979 228.103 439.492 226.22 444.201 226.22C448.91 226.22 453.424 228.103 456.736 231.45L506.788 281.502C510.135 284.814 512.019 289.328 512.019 294.037C512.019 298.747 510.136 303.261 506.789 306.573Z" fill="#D1D4D1"/>
<path d="M511.997 134.964L447.07 73.1003L510.178 11.2812L321.577 52.8503L386.495 114.714L323.395 176.542L511.997 134.964Z" fill="#F0C419"/>
</svg>
