<svg xmlns="http://www.w3.org/2000/svg" version="1.1" xmlns:xlink="http://www.w3.org/1999/xlink" width="512" height="512" x="0" y="0" viewBox="0 0 100 100" style="enable-background:new 0 0 512 512" xml:space="preserve" class=""><g><g fill-rule="evenodd" clip-rule="evenodd"><path d="M50.058 2.5h-.096c-.096 0-.202 0-.307.02a3.022 3.022 0 0 0-2.684 3.057v6.067a3.03 3.03 0 1 0 6.058.134V5.577A3.027 3.027 0 0 0 50.058 2.5zM26.526 20.232c-.038-.028-.067-.057-.096-.086l-4.294-4.275a3.034 3.034 0 0 0-2.166-.93c-.106 0-.211 0-.316.02a3.028 3.028 0 0 0-2.694 3.335c.077.7.403 1.352.901 1.85l4.275 4.294a3.032 3.032 0 0 0 4.294.087 3.032 3.032 0 0 0 .096-4.295zm55.642-4.37a3.023 3.023 0 0 0-2.224-.901 3.052 3.052 0 0 0-2.08.91l-4.294 4.275a3.04 3.04 0 0 0-.087 4.294 3.032 3.032 0 0 0 4.295.096c.028-.029.057-.067.086-.096l4.275-4.294a3.029 3.029 0 0 0 .029-4.284zm-68.39 29.12H7.567a3.03 3.03 0 0 0-.134 6.057h6.201a3.032 3.032 0 0 0 3.106-2.962 3.036 3.036 0 0 0-2.962-3.096zm78.79 0h-6.202a3.03 3.03 0 0 0-.134 6.057h6.201a3.03 3.03 0 0 0 3.096-2.962 3.036 3.036 0 0 0-2.962-3.096zM26.516 71.588a3.045 3.045 0 0 0-2.263-.93h-.038a3.044 3.044 0 0 0-2.08.92l-4.275 4.295a3.034 3.034 0 0 0-.326 4.275 3.034 3.034 0 0 0 4.601 0l4.294-4.275a3.03 3.03 0 0 0 .087-4.285zm55.986 4.65a3.263 3.263 0 0 0-.364-.365l-4.275-4.294a3.025 3.025 0 0 0-2.166-.92 3.031 3.031 0 0 0-3.048 3.019c-.01.824.325 1.62.92 2.195l4.294 4.275a3.046 3.046 0 0 0 4.275.364 3.028 3.028 0 0 0 .364-4.275zM61.102 93.903a3.663 3.663 0 0 1-3.758 3.595H42.661a3.68 3.68 0 0 1-3.781-3.409 3.685 3.685 0 0 1 3.397-3.944c.012 0 .012-.011.012-.011.128 0 .244 0 .372.011h14.846a3.67 3.67 0 0 1 3.595 3.758zM50 20.73c-15.03 0-27.28 12.25-27.28 27.28 0 9.384 4.89 17.54 12.126 22.439v10.745a3.03 3.03 0 0 0 3.029 3.029h24.25a3.03 3.03 0 0 0 3.03-3.03V70.45C72.39 65.55 77.278 57.394 77.278 48.01c0-15.03-12.25-27.28-27.279-27.28zm-.01 18.193a9.047 9.047 0 0 0-9.086 9.097c0 1.677-1.352 3.038-3.03 3.038s-3.038-1.361-3.038-3.038c0-8.33 6.815-15.164 15.154-15.164a3.023 3.023 0 0 1 3.03 3.029 3.031 3.031 0 0 1-3.03 3.038z" fill="#e50914" opacity="1" data-original="#000000" class=""></path></g></g></svg>